<?xml version="1.0" encoding="UTF-8" standalone="no"?>
<!-- Created with Inkscape (http://www.inkscape.org/) -->

<svg
   xmlns:dc="http://purl.org/dc/elements/1.1/"
   xmlns:cc="http://creativecommons.org/ns#"
   xmlns:rdf="http://www.w3.org/1999/02/22-rdf-syntax-ns#"
   xmlns:svg="http://www.w3.org/2000/svg"
   xmlns="http://www.w3.org/2000/svg"
   xmlns:sodipodi="http://sodipodi.sourceforge.net/DTD/sodipodi-0.dtd"
   xmlns:inkscape="http://www.inkscape.org/namespaces/inkscape"
   width="200"
   height="200"
   id="svg2"
   version="1.1"
   inkscape:version="0.91 r13725"
   sodipodi:docname="icon.svg">
  <defs
     id="defs4" />
  <sodipodi:namedview
     id="base"
     pagecolor="#ffffff"
     bordercolor="#666666"
     borderopacity="1.0"
     inkscape:pageopacity="0.0"
     inkscape:pageshadow="2"
     inkscape:zoom="4.24325"
     inkscape:cx="84.935935"
     inkscape:cy="111.30375"
     inkscape:document-units="px"
     inkscape:current-layer="layer1"
     showgrid="true"
     inkscape:window-width="2048"
     inkscape:window-height="1411"
     inkscape:window-x="-9"
     inkscape:window-y="891"
     inkscape:window-maximized="1"
     inkscape:snap-bbox="true"
     inkscape:bbox-paths="true"
     inkscape:bbox-nodes="true"
     inkscape:snap-bbox-edge-midpoints="true"
     units="px"
     inkscape:object-nodes="true">
    <inkscape:grid
       type="xygrid"
       id="grid2985" />
  </sodipodi:namedview>
  <metadata
     id="metadata7">
    <rdf:RDF>
      <cc:Work
         rdf:about="">
        <dc:format>image/svg+xml</dc:format>
        <dc:type
           rdf:resource="http://purl.org/dc/dcmitype/StillImage" />
        <dc:title />
      </cc:Work>
    </rdf:RDF>
  </metadata>
  <g
     inkscape:label="レイヤー 1"
     inkscape:groupmode="layer"
     id="layer1"
     transform="translate(0,-852.36214)">
    <rect
       style="fill:#e8edfa;fill-opacity:1;stroke:none;stroke-width:5;stroke-linecap:round;stroke-linejoin:round;stroke-miterlimit:4;stroke-dasharray:none;stroke-opacity:1"
       id="rect4562"
       width="200"
       height="200"
       x="0"
       y="852.36212"
       ry="15.000018"
       rx="15"
       inkscape:export-filename="icon.png"
       inkscape:export-xdpi="180"
       inkscape:export-ydpi="180" />
    <path
       style="color:#000000;font-style:normal;font-variant:normal;font-weight:normal;font-stretch:normal;font-size:medium;line-height:normal;font-family:sans-serif;text-indent:0;text-align:start;text-decoration:none;text-decoration-line:none;text-decoration-style:solid;text-decoration-color:#000000;letter-spacing:normal;word-spacing:normal;text-transform:none;direction:ltr;block-progression:tb;writing-mode:lr-tb;baseline-shift:baseline;text-anchor:start;white-space:normal;clip-rule:nonzero;display:inline;overflow:visible;visibility:visible;opacity:1;isolation:auto;mix-blend-mode:normal;color-interpolation:sRGB;color-interpolation-filters:linearRGB;solid-color:#000000;solid-opacity:1;fill:#000000;fill-opacity:1;fill-rule:evenodd;stroke:none;stroke-width:5;stroke-linecap:round;stroke-linejoin:round;stroke-miterlimit:4;stroke-dasharray:none;stroke-dashoffset:0;stroke-opacity:1;color-rendering:auto;image-rendering:auto;shape-rendering:auto;text-rendering:auto;enable-background:accumulate"
       d="M 103.92969 0.4609375 C 96.149979 0.52744119 87.692939 1.1496987 78.490234 2.3984375 C 57.823094 5.2028075 39.62113 17.271513 26.802734 34.658203 C 26.608125 34.922163 26.408825 35.194639 26.207031 35.474609 C 25.847939 35.972829 25.484335 36.479093 25.123047 37.001953 C 25.054597 37.101053 25.016167 37.160791 25.005859 37.175781 C 24.215187 38.325451 23.451412 39.495794 22.708984 40.683594 C 22.616684 40.831264 22.518237 40.986714 22.416016 41.152344 C 22.065701 41.720014 21.716737 42.295196 21.373047 42.878906 C 21.230025 43.121786 21.102665 43.346201 20.984375 43.550781 C 20.360645 44.629621 19.754389 45.724224 19.167969 46.833984 C 19.087399 46.986454 18.989539 47.166376 18.878906 47.378906 C 18.575904 47.961066 18.285961 48.538822 18.003906 49.107422 C 17.872353 49.372592 17.74374 49.635674 17.617188 49.896484 C 17.341086 50.465564 17.058772 51.05063 16.779297 51.65625 C 16.438363 52.39495 16.104262 53.139335 15.779297 53.890625 C 15.544804 54.432855 15.329572 54.962696 15.119141 55.472656 C 14.968919 55.836616 14.813966 56.210143 14.660156 56.595703 C 14.44179 57.143223 14.22568 57.696259 14.013672 58.255859 C 13.871873 58.630119 13.744556 58.986769 13.623047 59.318359 C 13.283661 60.244749 12.955804 61.177804 12.640625 62.121094 C 12.495484 62.555374 12.345651 63.00377 12.197266 63.46875 C 12.028345 63.99822 11.864821 64.526921 11.705078 65.056641 C 11.567924 65.511321 11.439524 65.959051 11.314453 66.394531 C 11.105106 67.123701 10.900505 67.858419 10.705078 68.599609 C 10.540932 69.221919 10.374007 69.857036 10.214844 70.509766 C 10.083436 71.048866 9.9647879 71.577007 9.8476562 72.091797 C 9.7371061 72.577437 9.6284072 73.067177 9.5234375 73.560547 C 9.4129438 74.080147 9.3016241 74.608047 9.1953125 75.148438 C 9.0708119 75.780917 8.9577105 76.406217 8.8476562 77.023438 C 8.715726 77.763788 8.5923255 78.504611 8.4765625 79.244141 C 8.3891635 79.802091 8.301849 80.368436 8.2207031 80.947266 C 8.1499571 81.452276 8.0833458 81.96045 8.0195312 82.46875 C 7.9416413 83.08883 7.8721735 83.702774 7.8066406 84.308594 C 7.7464736 84.865284 7.6861709 85.433842 7.6328125 86.013672 C 7.5581965 86.823652 7.4922651 87.638481 7.4355469 88.457031 C 7.4021589 88.939611 7.3740744 89.417855 7.3476562 89.890625 C 7.3094303 90.573725 7.2791193 91.25712 7.2539062 91.9375 C 7.2398603 92.31755 7.2217735 92.715044 7.2109375 93.132812 C 7.1845195 94.147423 7.1717361 95.167779 7.1738281 96.193359 C 7.1747029 96.602129 7.182878 96.988264 7.1875 97.351562 C 7.19676 98.084344 7.2141722 98.818697 7.2382812 99.554688 C 7.2521663 99.977407 7.2654632 100.40872 7.2851562 100.84961 C 7.3281522 101.81408 7.3815162 102.78504 7.4511719 103.76367 C 7.4706939 104.03765 7.4935517 104.29108 7.5117188 104.52344 C 7.5842827 105.45245 7.6688456 106.38465 7.765625 107.31836 C 7.813474 107.7796 7.8661352 108.23364 7.9179688 108.67969 C 8.0063698 109.44099 8.1030572 110.20042 8.2070312 110.95898 C 8.2531573 111.29529 8.2994401 111.65223 8.3554688 112.0332 C 8.5129731 113.10479 8.6873603 114.17745 8.8769531 115.25 C 8.9474071 115.64839 9.0205754 116.02757 9.0878906 116.38672 C 9.2371801 117.18358 9.3942231 117.9831 9.5625 118.78516 C 9.639533 119.1522 9.7183728 119.53564 9.8066406 119.93555 C 10.051204 121.04397 10.311969 122.15483 10.59375 123.27148 C 10.65175 123.50124 10.705902 123.69154 10.744141 123.83984 C 10.996253 124.81783 11.262038 125.79623 11.541016 126.77148 C 11.639226 127.11473 11.740471 127.45668 11.841797 127.79883 C 12.118658 128.73396 12.40623 129.67209 12.710938 130.61328 C 12.777468 130.81876 12.850908 131.05857 12.941406 131.33203 C 13.313418 132.4563 13.705469 133.57437 14.111328 134.6875 A 2.50025 2.50025 0 0 0 14.111328 134.68945 C 14.24093 135.04486 14.369976 135.38046 14.490234 135.70117 C 14.824628 136.59305 15.173025 137.48495 15.53125 138.375 C 15.638834 138.64227 15.750372 138.93185 15.878906 139.24414 C 16.352392 140.39465 16.846078 141.54712 17.363281 142.70117 A 2.50025 2.50025 0 0 0 17.363281 142.70312 C 17.467645 142.93597 17.562096 143.13114 17.634766 143.29102 C 18.089981 144.2926 18.560214 145.29019 19.044922 146.28516 C 19.172514 146.54705 19.303768 146.81831 19.443359 147.09961 C 20.019002 148.25976 20.614654 149.42616 21.242188 150.59766 C 21.299768 150.70516 21.319318 150.73742 21.298828 150.69922 C 21.89414 151.80812 22.512918 152.90951 23.142578 154.00391 C 23.341017 154.34881 23.537403 154.68497 23.730469 155.01367 C 24.279237 155.94797 24.843318 156.88406 25.423828 157.81836 C 25.540029 158.00536 25.668291 158.21853 25.818359 158.45703 C 26.525468 159.58083 27.25378 160.70035 28.001953 161.81445 C 28.21249 162.12795 28.417807 162.42051 28.605469 162.69531 C 29.208445 163.57831 29.824843 164.45784 30.455078 165.33594 C 30.657551 165.61804 30.86642 165.91124 31.087891 166.21484 C 31.907784 167.33884 32.749489 168.46469 33.621094 169.58789 C 33.727744 169.72529 33.807157 169.82005 33.851562 169.87695 C 34.655856 170.90795 35.47943 171.93333 36.320312 172.95312 C 36.551485 173.23353 36.787842 173.51859 37.027344 173.80469 C 37.891524 174.83699 38.773755 175.86929 39.685547 176.90039 C 39.734467 176.95539 39.796257 177.02678 39.873047 177.11328 C 40.867322 178.23348 41.887076 179.33975 42.921875 180.43945 C 43.15541 180.68765 43.384819 180.92851 43.607422 181.16211 C 44.472858 182.07041 45.355086 182.9752 46.253906 183.875 C 46.475849 184.0972 46.709046 184.33293 46.960938 184.58203 C 48.029997 185.63923 49.121851 186.69118 50.240234 187.73828 C 50.49045 187.97248 50.726132 188.18501 50.935547 188.37891 C 51.892089 189.26451 52.866874 190.14769 53.859375 191.02539 C 54.131453 191.26599 54.408609 191.51142 54.695312 191.76172 C 55.903447 192.81662 57.135502 193.87408 58.408203 194.92578 A 2.50025 2.50025 0 0 0 62.5 193 C 62.5 188.9145 62.52292 185.01948 62.5625 181.20898 C 62.61729 175.95168 62.722284 170.95534 62.892578 166.18164 C 65.452741 167.12584 68.056234 167.97643 70.705078 168.70703 A 2.50025 2.50025 0 0 0 70.740234 168.7168 C 70.893076 168.7568 71.046144 168.79478 71.199219 168.83398 C 73.820421 169.54238 76.475901 170.13981 79.158203 170.63281 A 2.50025 2.50025 0 0 0 79.160156 170.63281 C 79.439741 170.68381 79.719887 170.7346 80 170.7832 C 82.629325 171.2432 85.285419 171.59736 87.960938 171.84766 C 88.209382 171.87266 88.458358 171.89887 88.707031 171.92188 A 2.50025 2.50025 0 0 0 88.730469 171.92188 C 91.588473 172.16718 94.472317 172.30459 97.378906 172.30469 A 2.50025 2.50025 0 0 0 97.380859 172.30469 C 99.461002 172.30469 101.52938 172.23873 103.58398 172.11133 A 2.50025 2.50025 0 0 0 103.61523 172.11133 C 103.72829 172.10133 103.84012 172.09394 103.95312 172.08594 L 103.98242 172.08594 C 104.82418 172.03094 105.65881 171.92471 106.49805 171.84961 L 106.37695 172.69531 L 106.30859 173.17188 L 97.628906 199.21094 A 2.50025 2.50025 0 0 0 97.503906 200 L 162.49609 200 A 2.50025 2.50025 0 0 0 162.23633 198.88281 L 152.90039 180.21094 L 155.06836 176.45312 A 2.50025 2.50025 0 0 0 154.1543 173.03711 L 147.35156 169.11133 L 147.08984 168.58789 L 179.94922 150.33203 L 190.6582 147.41211 A 2.50025 2.50025 0 0 0 191.59961 143.08008 L 185.59961 138.08008 A 2.50025 2.50025 0 0 0 184 137.5 L 175 137.5 A 2.50025 2.50025 0 0 0 173.67969 137.87695 L 168.6543 141 C 169.34975 140.19352 170.07163 139.40744 170.73438 138.57617 L 170.73828 138.57227 C 171.2574 137.9234 171.76648 137.26602 172.26367 136.60352 A 2.50025 2.50025 0 0 0 172.26562 136.59961 C 173.41206 135.06606 174.50262 133.49221 175.53516 131.87891 L 175.53711 131.875 C 182.26206 121.40444 186.04669 109.69543 186.97852 97.685547 C 187.26154 98.202527 187.52616 98.706075 187.82617 99.234375 A 2.50025 2.50025 0 0 0 192.49805 97.892578 C 192.42005 96.072258 192.34954 94.049874 192.26367 91.896484 C 192.26067 91.831184 192.25972 91.816722 192.26172 91.857422 C 192.23402 91.164712 192.19081 90.430171 192.16211 89.775391 C 192.09071 88.150031 192.0201 86.512512 191.91211 84.732422 L 191.91211 84.730469 C 191.87021 84.038869 191.81861 83.346469 191.77148 82.667969 C 191.73528 82.147139 191.70218 81.614492 191.6582 81.044922 L 191.6582 81.042969 C 191.5984 80.268079 191.52635 79.492518 191.45898 78.736328 C 191.41168 78.206148 191.36658 77.667056 191.31055 77.097656 C 191.23095 76.288046 191.13864 75.478924 191.04883 74.683594 C 190.98833 74.148194 190.92823 73.60316 190.85742 73.03125 C 190.75852 72.23171 190.64793 71.441754 190.53906 70.664062 A 2.50025 2.50025 0 0 0 190.53906 70.662109 C 190.45296 70.047409 190.36581 69.419951 190.26562 68.769531 C 190.14864 68.009451 190.01997 67.26316 189.89453 66.53125 C 189.77986 65.86256 189.66234 65.183901 189.53125 64.488281 C 189.3847 63.710121 189.22534 62.946009 189.06836 62.193359 C 188.93133 61.536629 188.79156 60.864851 188.63477 60.175781 C 188.36403 58.985551 188.08085 57.779471 187.75781 56.556641 C 187.73421 56.467441 187.71538 56.404064 187.70508 56.365234 C 184.07452 42.728114 177.36736 28.839123 164.75781 18.320312 C 152.14827 7.801503 133.74338 0.78363688 107.22266 0.46679688 C 106.13872 0.45384686 105.04107 0.45143697 103.92969 0.4609375 z "
       transform="translate(0,852.36214)"
       id="path4564" />
    <path
       style="fill:#ffe6d5;fill-opacity:1;fill-rule:evenodd;stroke:none;stroke-width:1px;stroke-linecap:butt;stroke-linejoin:miter;stroke-opacity:1"
       d="m 138,1015.3621 37,-22.99996 9,0 6,5 -11,2.99996 -36,20 c -4.0038,-0.4981 -8.3247,-0.8376 -5,-5 z"
       id="path4527-6"
       inkscape:connector-curvature="0"
       sodipodi:nodetypes="ccccccc" />
    <path
       style="fill:#6fe1c4;fill-opacity:1;fill-rule:evenodd;stroke:none;stroke-width:1px;stroke-linecap:butt;stroke-linejoin:miter;stroke-opacity:1"
       d="m 110,1017.3621 -5,35 55,0 -20,-40 z"
       id="path4519"
       inkscape:connector-curvature="0"
       sodipodi:nodetypes="ccccc" />
    <path
       style="fill:#2bcec1;fill-opacity:1;stroke:none;stroke-width:40;stroke-linecap:round;stroke-linejoin:round;stroke-miterlimit:4;stroke-dasharray:none;stroke-opacity:1"
       d="M 140 160 L 121.53906 163.07617 L 110 165 L 108.85156 173.04492 L 105 200 L 140 200 L 124.87109 169.74023 A 87.5 77.499992 0 0 0 141.54883 163.09961 L 140 160 z "
       id="ellipse4553"
       transform="translate(0,852.36214)" />
    <path
       style="color:#000000;font-style:normal;font-variant:normal;font-weight:normal;font-stretch:normal;font-size:medium;line-height:normal;font-family:sans-serif;text-indent:0;text-align:start;text-decoration:none;text-decoration-line:none;text-decoration-style:solid;text-decoration-color:#000000;letter-spacing:normal;word-spacing:normal;text-transform:none;direction:ltr;block-progression:tb;writing-mode:lr-tb;baseline-shift:baseline;text-anchor:start;white-space:normal;clip-rule:nonzero;display:inline;overflow:visible;visibility:visible;opacity:1;isolation:auto;mix-blend-mode:normal;color-interpolation:sRGB;color-interpolation-filters:linearRGB;solid-color:#000000;solid-opacity:1;fill:#ffffff;fill-opacity:1;fill-rule:evenodd;stroke:none;stroke-width:5;stroke-linecap:butt;stroke-linejoin:miter;stroke-miterlimit:4;stroke-dasharray:none;stroke-dashoffset:0;stroke-opacity:1;color-rendering:auto;image-rendering:auto;shape-rendering:auto;text-rendering:auto;enable-background:accumulate"
       d="M 130.20312 162.09766 L 128.95312 164.26172 L 117.0957 184.79883 L 139.79688 197.9043 L 152.9043 175.20312 L 130.20312 162.09766 z "
       transform="translate(0,852.36214)"
       id="path4544" />
    <path
       style="fill:#6fe1c4;fill-opacity:1;fill-rule:evenodd;stroke:none;stroke-width:1px;stroke-linecap:butt;stroke-linejoin:miter;stroke-opacity:1"
       d="m 131.11771,1017.8732 -10.6066,18.3712 18.37117,10.6066 10.6066,-18.3712 z"
       id="path4521"
       inkscape:connector-curvature="0" />
    <path
       style="fill:#c6fbed;fill-opacity:1;fill-rule:evenodd;stroke:none;stroke-width:1px;stroke-linecap:butt;stroke-linejoin:miter;stroke-opacity:1"
       d="m 131.11771,1017.8732 3.8823,14.4889 14.48887,-3.8823 z"
       id="path4523"
       inkscape:connector-curvature="0"
       sodipodi:nodetypes="cccc" />
    <path
       sodipodi:nodetypes="cccc"
       inkscape:connector-curvature="0"
       id="path4525"
       d="m 120.51112,1036.2444 14.48889,-3.8823 3.88228,14.4889 z"
       style="fill:#2bcec1;fill-opacity:1;fill-rule:evenodd;stroke:none;stroke-width:1px;stroke-linecap:butt;stroke-linejoin:miter;stroke-opacity:1" />
    <path
       style="fill:#ffe6d5;fill-opacity:1;fill-rule:evenodd;stroke:none;stroke-width:1px;stroke-linecap:butt;stroke-linejoin:miter;stroke-opacity:1"
       d="m 110,1022.3621 -10,30 10,0 5,-25 c -0.4981,-4.0038 -0.83764,-8.3247 -5,-5 z"
       id="path4527"
       inkscape:connector-curvature="0"
       sodipodi:nodetypes="ccccc" />
    <ellipse
       style="fill:#ffe6d5;fill-opacity:1;stroke:none;stroke-width:40;stroke-linecap:round;stroke-linejoin:round;stroke-miterlimit:4;stroke-dasharray:none;stroke-opacity:1"
       id="path4184"
       cx="97.378906"
       cy="944.66876"
       rx="87.5"
       ry="77.499992" />
    <path
       style="fill:#e9c6af;fill-opacity:1;fill-rule:evenodd;stroke:none;stroke-width:1px;stroke-linecap:butt;stroke-linejoin:miter;stroke-opacity:1"
       d="m 97.378906,867.16878 a 87.5,77.499992 0 0 0 -81.164062,48.70703 c -3.432697,9.16984 -5.625371,19.07942 -6.310547,29.42383 a 87.5,77.499992 0 0 0 50.824218,69.64846 C 63.408116,966.27108 75.39435,940.57265 125,899.36214 c 47.20806,6.74594 48.70339,21.46817 59.86914,45.05273 A 87.5,77.499992 0 0 0 97.378906,867.16878 Z"
       id="path4509"
       inkscape:connector-curvature="0" />
    <path
       style="fill:#e9c6af;fill-opacity:1;fill-rule:evenodd;stroke:none;stroke-width:1px;stroke-linecap:butt;stroke-linejoin:miter;stroke-opacity:1"
       d="m 69.878906,927.16878 -25,25 c 0,0 -2.372981,30.96103 -3.845703,51.79102 15.77326,11.7597 35.728286,18.2085 56.345703,18.209 32.454224,-0.02 62.230084,-15.9484 77.355474,-41.38088 C 125.88551,1028.717 34.053854,1042.7955 69.878906,927.16878 Z"
       id="path4514"
       inkscape:connector-curvature="0"
       sodipodi:nodetypes="cccccc" />
    <ellipse
       style="display:inline;opacity:1;fill:#000000;fill-opacity:1;stroke:none;stroke-width:40;stroke-linecap:square;stroke-linejoin:round;stroke-miterlimit:4;stroke-dasharray:none;stroke-opacity:1"
       id="ellipse4938-95-1"
       cx="81.128906"
       cy="967.16876"
       rx="11.250001"
       ry="26.25001" />
    <ellipse
       style="display:inline;opacity:1;fill:#000000;fill-opacity:1;stroke:none;stroke-width:40;stroke-linecap:square;stroke-linejoin:round;stroke-miterlimit:4;stroke-dasharray:none;stroke-opacity:1"
       id="ellipse4938-95-1-5"
       cx="156.12891"
       cy="937.16876"
       rx="11.250002"
       ry="26.250011" />
    <path
       style="fill:#6fe1c4;fill-opacity:1;fill-rule:evenodd;stroke:none;stroke-width:1px;stroke-linecap:butt;stroke-linejoin:miter;stroke-opacity:1"
       d="M 125.00073,895.36241 C 64.87571,945.31202 60.000729,972.43763 60.000729,1045.3623 -27.910294,972.7206 12.985023,866.17192 78.825387,857.23789 189.87891,842.16878 188.6918,919.82254 190.00073,950.36241 c -16.72596,-29.45358 -11.47085,-47.35079 -65,-55 z"
       id="path4365"
       inkscape:connector-curvature="0"
       sodipodi:nodetypes="ccscc" />
    <path
       style="fill:#2bcec1;fill-opacity:1;fill-rule:evenodd;stroke:none;stroke-width:1px;stroke-linecap:butt;stroke-linejoin:miter;stroke-opacity:1"
       d="M 29.878906,887.08089 C 0.0790823,925.88261 -2.0724222,994.07109 60,1045.3621 60,990.35424 62.788902,961.40372 89.957031,929.06136 39.878906,972.16878 14.878906,957.16878 29.878906,887.08089 Z"
       id="path4427"
       inkscape:connector-curvature="0"
       sodipodi:nodetypes="cccc" />
    <path
       style="fill:#c6fbed;fill-rule:evenodd;stroke:none;stroke-width:1px;stroke-linecap:butt;stroke-linejoin:miter;stroke-opacity:1;fill-opacity:1"
       d="m 64.878906,882.16878 c -32.189527,18.96009 -33.445987,65.54013 -30,100 -2.074216,-31.00089 14.161564,-81.14689 30,-100 z"
       id="path4492"
       inkscape:connector-curvature="0"
       sodipodi:nodetypes="ccc" />
    <path
       style="color:#000000;font-style:normal;font-variant:normal;font-weight:normal;font-stretch:normal;font-size:medium;line-height:normal;font-family:sans-serif;text-indent:0;text-align:start;text-decoration:none;text-decoration-line:none;text-decoration-style:solid;text-decoration-color:#000000;letter-spacing:normal;word-spacing:normal;text-transform:none;direction:ltr;block-progression:tb;writing-mode:lr-tb;baseline-shift:baseline;text-anchor:start;white-space:normal;clip-rule:nonzero;display:inline;overflow:visible;visibility:visible;opacity:1;isolation:auto;mix-blend-mode:normal;color-interpolation:sRGB;color-interpolation-filters:linearRGB;solid-color:#000000;solid-opacity:1;fill:#ffffff;fill-opacity:1;fill-rule:nonzero;stroke:none;stroke-width:5;stroke-linecap:round;stroke-linejoin:round;stroke-miterlimit:4;stroke-dasharray:none;stroke-dashoffset:0;stroke-opacity:1;color-rendering:auto;image-rendering:auto;shape-rendering:auto;text-rendering:auto;enable-background:accumulate"
       d="m 53.822265,903.89925 c -0.72903,0.006 -1.448214,0.13316 -2.126953,0.36133 a 2.50025,2.50025 0 0 0 -0.002,0 c -3.431735,1.15675 -5.39218,4.8657 -4.394531,8.35351 a 2.50025,2.50025 0 0 0 0.01563,0.0527 l 0.06055,0.19531 a 2.50025,2.50025 0 0 0 0.01953,0.0566 l 0.804687,2.39258 -4.541015,1.52148 -0.802735,-2.38476 a 2.50025,2.50025 0 0 0 0,-0.002 c -0.939979,-2.79024 -3.593343,-4.67565 -6.537109,-4.65234 -0.718687,0.006 -1.435641,0.12508 -2.117187,0.35156 a 2.50025,2.50025 0 0 0 -0.0098,0.004 c -3.433307,1.15852 -5.384853,4.8695 -4.390625,8.35351 a 2.50025,2.50025 0 0 0 0.0078,0.0274 c 0.03202,0.10769 0.05703,0.1842 0.07227,0.23242 a 2.50025,2.50025 0 0 0 0.01563,0.0449 l 0.796875,2.36719 -2.332031,0.78125 a 2.50025,2.50025 0 0 0 -0.0039,0.002 c -3.426532,1.15571 -5.39232,4.85202 -4.398438,8.33008 0.02562,0.0898 0.05719,0.19107 0.09375,0.30078 a 2.50025,2.50025 0 0 0 0.002,0.004 c 0.828039,2.46578 3.086513,4.12588 5.632813,4.41015 a 2.50025,2.50025 0 0 0 0.77539,0.11914 c 0.750023,-0.007 1.497622,-0.1355 2.212891,-0.3789 a 2.50025,2.50025 0 0 0 0.0039,-0.002 c 2.290498,-0.78202 2.156948,-0.73533 2.314453,-0.78907 l 1.535157,4.56446 -2.310547,0.77929 0.0039,0 c -3.445072,1.15963 -5.395635,4.88449 -4.398438,8.37696 3.7e-4,10e-4 -3.7e-4,0.003 0,0.004 0.03994,0.14024 0.07519,0.24091 0.09375,0.29688 a 2.50025,2.50025 0 0 0 0.0039,0.01 c 0.830665,2.46702 3.109731,4.09708 5.658203,4.3711 a 2.50025,2.50025 0 0 0 0.759766,0.11523 c 0.775004,-0.007 1.541872,-0.14172 2.269531,-0.38476 a 2.50025,2.50025 0 0 0 0.01563,-0.006 l 2.214844,-0.75782 0.826171,2.45508 a 2.50025,2.50025 0 0 0 0,0.002 c 0.939896,2.79103 3.591275,4.67763 6.535157,4.65624 a 2.50025,2.50025 0 0 0 0.0039,0 c 0.724354,-0.006 1.437062,-0.13105 2.111328,-0.35546 a 2.50025,2.50025 0 0 0 0.0098,-0.002 c 3.433942,-1.15713 5.388266,-4.86814 4.394531,-8.35351 -0.03099,-0.11034 -0.0656,-0.22543 -0.113281,-0.35742 l -0.830078,-2.4668 4.533203,-1.55078 0.855468,2.54101 a 2.50025,2.50025 0 0 0 0,0.002 c 0.940016,2.79086 3.592648,4.67371 6.535157,4.65234 a 2.50025,2.50025 0 0 0 0.0059,0 c 0.71533,-0.007 1.430156,-0.12462 2.115234,-0.35352 a 2.50025,2.50025 0 0 0 0.0059,-0.002 c 3.43428,-1.15763 5.37373,-4.91696 4.367187,-8.44141 a 2.50025,2.50025 0 0 0 -0.01758,-0.0527 l -0.03516,-0.11328 A 2.50025,2.50025 0 0 0 72.125,943.5223 l -0.875,-2.59766 2.785156,-0.95313 a 2.50025,2.50025 0 0 0 0.1875,-0.0723 c 0,0 0.528119,-0.22746 1.130859,-0.58203 0.602741,-0.35457 1.356153,-0.71989 2.074219,-1.83789 a 2.50025,2.50025 0 0 0 0,-0.002 c 1.075167,-1.67665 1.386342,-3.70787 0.837891,-5.625 A 2.50025,2.50025 0 0 0 78.25,931.8055 l -0.05469,-0.17774 a 2.50025,2.50025 0 0 0 -0.01953,-0.0664 c -0.933345,-2.76102 -3.592009,-4.57862 -6.5,-4.55664 a 2.50025,2.50025 0 0 0 -0.0039,0 c -0.731301,0.007 -1.46456,0.12746 -2.169922,0.36328 a 2.50025,2.50025 0 0 0 -0.0078,0.002 l -2.519531,0.85156 -1.566406,-4.65234 c 0.01541,-0.005 0.01585,-0.006 0.03125,-0.0117 0.582185,-0.19865 1.161998,-0.39498 1.595703,-0.54297 0.216852,-0.074 0.397141,-0.13659 0.523438,-0.17968 0.119939,-0.0409 0.18067,-0.0621 0.1875,-0.0645 l 0.002,-0.002 c 1.526008,-0.51322 2.85064,-1.50596 3.755859,-2.9043 0.905719,-1.39911 1.32969,-3.30656 0.794922,-5.17578 a 2.50025,2.50025 0 0 0 -0.01367,-0.0449 l -0.05273,-0.17188 a 2.50025,2.50025 0 0 0 -0.02148,-0.0664 c -0.929594,-2.75918 -3.601337,-4.60499 -6.507812,-4.58399 l -0.0039,0 c -0.66476,0.005 -1.324118,0.10578 -1.957031,0.28711 a 2.50025,2.50025 0 0 0 -0.105469,0.0312 l -2.472656,0.82813 -0.810547,-2.40821 a 2.50025,2.50025 0 0 0 0,-0.004 c -0.577396,-1.70952 -1.819984,-3.1344 -3.4375,-3.93945 a 2.50025,2.50025 0 0 0 -0.0059,-0.004 c -0.952525,-0.47055 -2.015041,-0.72075 -3.083984,-0.71289 a 2.50025,2.50025 0 0 0 -0.0039,0 z m -1.355468,24.08594 1.552734,4.61718 -4.537109,1.53516 -1.550782,-4.60352 c 1.843313,-0.62909 3.270406,-1.11725 4.535157,-1.54882 z"
       id="path4373"
       inkscape:connector-curvature="0" />
    <g
       transform="matrix(0.33839526,0,0,0.33839526,25.702,896.82517)"
       id="g4339">
      <g
         id="g4341">
        <path
           id="path4343"
           d="M 13.997,105.78 C 8.503,105.822 3.849,102.548 2.133,97.438 2.067,97.24 2.01,97.048 1.955,96.855 0.085,90.311 3.711,83.465 10.21,81.273 L 114.45,46.35 c 1.267,-0.363 2.543,-0.548 3.807,-0.556 5.64,-0.044 10.422,3.302 12.18,8.52 l 0.156,0.504 c 1.95,6.816 -2.895,12.9 -8.7,14.85 -0.004,0.003 -1.06,0.36 -103.662,35.39 -1.387,0.472 -2.81,0.71 -4.233,0.723 z"
           inkscape:connector-curvature="0"
           style="fill:#70cadb" />
      </g>
      <g
         id="g4345">
        <path
           id="path4347"
           d="m 31.372,157.045 c -5.537,0.04 -10.207,-3.187 -11.903,-8.224 -0.064,-0.193 -0.125,-0.385 -0.18,-0.58 -1.895,-6.622 1.726,-13.54 8.247,-15.735 L 131.78,97.263 c 1.346,-0.45 2.738,-0.68 4.136,-0.693 5.552,-0.042 10.43,3.35 12.152,8.444 l 0.16,0.53 c 1.007,3.52 0.412,7.478 -1.59,10.6 -1.492,2.323 -6.198,4.367 -6.198,4.367 L 35.8,156.29 c -1.458,0.487 -2.945,0.744 -4.428,0.757 z"
           inkscape:connector-curvature="0"
           style="fill:#e01765" />
      </g>
      <g
         id="g4349">
        <path
           id="path4351"
           d="m 118.148,157.267 c -5.56,0.043 -10.484,-3.464 -12.255,-8.722 l -34.79,-103.34 -0.174,-0.58 c -1.885,-6.59 1.74,-13.464 8.237,-15.654 1.3,-0.437 2.644,-0.665 3.997,-0.677 2.01,-0.015 3.955,0.438 5.787,1.343 3.064,1.525 5.355,4.15 6.45,7.392 l 34.787,103.33 0.1,0.332 c 1.954,6.842 -1.663,13.72 -8.16,15.91 -1.287,0.43 -2.627,0.655 -3.98,0.667 z"
           inkscape:connector-curvature="0"
           style="fill:#e8a723" />
      </g>
      <g
         id="g4353">
        <path
           id="path4355"
           d="m 66.435,174.674 c -5.56,0.043 -10.487,-3.465 -12.26,-8.73 L 19.394,62.608 c -0.06,-0.19 -0.12,-0.38 -0.178,-0.575 -1.88,-6.588 1.734,-13.463 8.23,-15.655 1.294,-0.43 2.633,-0.657 3.985,-0.668 5.56,-0.044 10.485,3.463 12.257,8.723 l 34.782,103.34 c 0.065,0.18 0.124,0.38 0.177,0.57 1.884,6.593 -1.733,13.472 -8.238,15.664 -1.292,0.43 -2.628,0.656 -3.977,0.667 z"
           inkscape:connector-curvature="0"
           style="fill:#3eb890" />
      </g>
      <path
         id="path4357"
         d="m 100.997,133.996 24.258,-8.294 -7.93,-23.55 -24.286,8.208 z"
         inkscape:connector-curvature="0"
         style="fill:#cc2027" />
      <path
         id="path4359"
         d="m 49.364,151.65 24.255,-8.293 -7.99,-23.73 -24.28,8.21 z"
         inkscape:connector-curvature="0"
         style="fill:#361238" />
      <path
         id="path4361"
         d="M 83.727,82.7 107.987,74.417 100.15,51.142 75.845,59.285 83.727,82.7 Z"
         inkscape:connector-curvature="0"
         style="fill:#65863a" />
      <path
         id="path4363"
         d="m 32.088,100.33 24.26,-8.283 -7.933,-23.572 -24.305,8.142 7.978,23.712 z"
         inkscape:connector-curvature="0"
         style="fill:#1a937d" />
    </g>
    <path
       style="fill:#ff8080;fill-opacity:1;fill-rule:evenodd;stroke:none;stroke-width:1px;stroke-linecap:butt;stroke-linejoin:miter;stroke-opacity:1"
       d="m 124.87891,972.16878 -5,29.99992 30,-14.99992 z"
       id="path4367"
       inkscape:connector-curvature="0"
       sodipodi:nodetypes="cccc" />
    <path
       style="fill:#2bcec1;fill-opacity:1;fill-rule:evenodd;stroke:none;stroke-width:1px;stroke-linecap:butt;stroke-linejoin:miter;stroke-opacity:1"
       d="m 176.98438,889.00667 c 7.89453,23.16211 2.89453,28.16211 -16.16406,16.80859 16.57719,9.7521 17.77306,24.46039 29.17968,44.54688 -0.63108,-14.72448 -0.6856,-40.39949 -13.01562,-61.35547 z"
       id="path4432"
       inkscape:connector-curvature="0"
       sodipodi:nodetypes="cccc" />
    <path
       style="fill:#c6fbed;fill-rule:evenodd;stroke:none;stroke-width:1px;stroke-linecap:butt;stroke-linejoin:miter;stroke-opacity:1;fill-opacity:1"
       d="m 139.87891,872.16878 c 17.20966,9.42203 32.71808,15.55626 45,50 -4.04856,-36.96043 -31.2982,-47.45025 -45,-50 z"
       id="path4492-9"
       inkscape:connector-curvature="0"
       sodipodi:nodetypes="ccc" />
  </g>
</svg>
